<?xml version="1.0" encoding="UTF-8"?><svg xmlns="http://www.w3.org/2000/svg" width="1600" height="1200" viewBox="0 0 1600 1200"><defs><pattern id="dots" patternTransform="translate(0,0) scale(10,10)" height="10" width="10" patternUnits="userSpaceOnUse"><circle r="0.45" cy="0.810" cx="2.567" style="fill:#E6DFDF"/><circle r="0.45" cy="2.33" cx="3.048" style="fill:#E6DFDF"/><circle r="0.45" cy="2.415" cx="4.418" style="fill:#E6DFDF"/><circle r="0.45" cy="3.029"  cx="1.844" style="fill:#E6DFDF"/><circle r="0.45" cy="1.363" cx="6.08" style="fill:#E6DFDF"/><circle r="0.45" cy="4.413" cx="5.819" style="fill:#E6DFDF"/><circle r="0.45" cy="4.048" cx="4.305" style="fill:#E6DFDF"/><circle r="0.45" cy="3.045" cx="5.541" style="fill:#E6DFDF"/><circle r="0.45" cy="5.527" cx="4.785" style="fill:#E6DFDF"/><circle r="0.45" cy="5.184" cx="2.667" style="fill:#E6DFDF"/><circle r="0.45" cy="1.448" cx="7.965" style="fill:#E6DFDF"/><circle r="0.45" cy="5.049" cx="7.047" style="fill:#E6DFDF"/><circle r="0.45" cy="0.895" cx="4.340" style="fill:#E6DFDF"/><circle r="0.45" cy="1.049" cx="9.553" style="fill:#E6DFDF"/><circle r="0.45" cy="2.689" cx="7.006" style="fill:#E6DFDF"/><circle r="0.45" cy="2.689" cx="8.909" style="fill:#E6DFDF"/><circle r="0.45" cy="4.407" cx="9.315" style="fill:#E6DFDF"/><circle r="0.45" cy="3.870" cx="7.820" style="fill:#E6DFDF"/><circle r="0.45" cy="5.948" cx="8.270" style="fill:#E6DFDF"/><circle r="0.45" cy="7.428" cx="7.973" style="fill:#E6DFDF"/><circle r="0.45" cy="8.072" cx="9.342" style="fill:#E6DFDF"/><circle r="0.45" cy="9.315" cx="8.206" style="fill:#E6DFDF"/><circle r="0.45" cy="6.296" cx="3.379" style="fill:#E6DFDF"/><circle r="0.45" cy="8.204" cx="2.871" style="fill:#E6DFDF"/><circle r="0.45" cy="8.719" cx="4.59" style="fill:#E6DFDF"/><circle r="0.45" cy="7.315" cx="5.734" style="fill:#E6DFDF"/><circle r="0.45" cy="6.513" cx="6.707" style="fill:#E6DFDF"/><circle r="0.45" cy="8.373" cx="6.535" style="fill:#E6DFDF"/><circle r="0.45" cy="7.154" cx="4.37" style="fill:#E6DFDF"/><circle r="0.45" cy="7.25" cx="0.622" style="fill:#E6DFDF"/><circle r="0.45" cy="5.679" cx="0.831" style="fill:#E6DFDF"/><circle r="0.45" cy="8.519" cx="1.257" style="fill:#E6DFDF"/><circle r="0.45" cy="6.877" cx="1.989" style="fill:#E6DFDF"/><circle r="0.45" cy="1.664" cx="1.166" style="fill:#E6DFDF"/><circle r="0.45" cy="0.093" cx="1.151" style="fill:#E6DFDF"/><circle r="0.45" cy="10.093" cx="1.151" style="fill:#E6DFDF"/><circle r="0.45" cy="4.451" cx="1.302" style="fill:#E6DFDF"/><circle r="0.45" cy="3.763" cx="3.047" style="fill:#E6DFDF"/></pattern></defs><g><rect style="fill:url(#dots)" width="1600" height="1200" x="0" y="0"/></g></svg>